<?xml version="1.0" encoding="UTF-8" standalone="no"?>
<!DOCTYPE svg PUBLIC "-//W3C//DTD SVG 20010904//EN" "http://www.w3.org/TR/2001/REC-SVG-20010904/DTD/svg10.dtd">
<svg id="directory" xmlns="http://www.w3.org/2000/svg" width="22pt" height="22pt" viewBox="0 0 24 24" version="1.1">
  <g id="surface1">
  <path fill="#CDCDCD" stroke="none" stroke-width="0" stroke-linecap="round" stroke-linejoin="round" d="M 21.890625 2.8125 L 21.1875 2.8125 L 21.1875 2.109375 C 21.1875 0.945312 20.242188 0 19.078125 0 L 4.21875 0 C 3.054688 0 2.109375 0.945312 2.109375 2.109375 L 2.109375 2.8125 C 0.945312 2.8125 0 3.757812 0 4.921875 C 0 6.085938 0.945312 7.03125 2.109375 7.03125 L 2.109375 9.9375 C 0.945312 9.9375 0 10.882812 0 12.046875 C 0 13.210938 0.945312 14.15625 2.109375 14.15625 L 2.109375 16.96875 C 0.945312 16.96875 0 17.914062 0 19.078125 C 0 20.242188 0.945312 21.1875 2.109375 21.1875 L 2.109375 21.890625 C 2.109375 23.054688 3.054688 24 4.21875 24 L 19.078125 24 C 20.242188 24 21.1875 23.054688 21.1875 21.890625 L 21.1875 21.1875 L 21.890625 21.1875 C 23.054688 21.1875 24 20.242188 24 19.078125 L 24 4.921875 C 24 3.757812 23.054688 2.8125 21.890625 2.8125 Z M 1.40625 4.921875 C 1.40625 4.535156 1.722656 4.21875 2.109375 4.21875 L 4.921875 4.21875 C 5.308594 4.21875 5.625 4.535156 5.625 4.921875 C 5.625 5.308594 5.308594 5.625 4.921875 5.625 L 2.109375 5.625 C 1.722656 5.625 1.40625 5.308594 1.40625 4.921875 Z M 1.40625 12.046875 C 1.40625 11.660156 1.722656 11.34375 2.109375 11.34375 L 4.921875 11.34375 C 5.308594 11.34375 5.625 11.660156 5.625 12.046875 C 5.625 12.433594 5.308594 12.75 4.921875 12.75 C 4.695312 12.75 2.84375 12.75 2.109375 12.75 C 1.722656 12.75 1.40625 12.433594 1.40625 12.046875 Z M 2.109375 19.78125 C 1.722656 19.78125 1.40625 19.464844 1.40625 19.078125 C 1.40625 18.691406 1.722656 18.375 2.109375 18.375 L 4.921875 18.375 C 5.308594 18.375 5.625 18.691406 5.625 19.078125 C 5.625 19.464844 5.308594 19.78125 4.921875 19.78125 Z M 19.78125 21.890625 C 19.78125 22.277344 19.464844 22.59375 19.078125 22.59375 L 4.21875 22.59375 C 3.832031 22.59375 3.515625 22.277344 3.515625 21.890625 L 3.515625 21.1875 L 4.921875 21.1875 C 6.085938 21.1875 7.03125 20.242188 7.03125 19.078125 C 7.03125 17.914062 6.085938 16.96875 4.921875 16.96875 L 3.515625 16.96875 L 3.515625 14.15625 L 4.921875 14.15625 C 6.085938 14.15625 7.03125 13.210938 7.03125 12.046875 C 7.03125 10.882812 6.085938 9.9375 4.921875 9.9375 L 3.515625 9.9375 L 3.515625 7.03125 L 4.921875 7.03125 C 6.085938 7.03125 7.03125 6.085938 7.03125 4.921875 C 7.03125 3.757812 6.085938 2.8125 4.921875 2.8125 L 3.515625 2.8125 L 3.515625 2.109375 C 3.515625 1.722656 3.832031 1.40625 4.21875 1.40625 L 19.078125 1.40625 C 19.464844 1.40625 19.78125 1.722656 19.78125 2.109375 Z M 22.59375 19.078125 C 22.59375 19.464844 22.277344 19.78125 21.890625 19.78125 L 21.1875 19.78125 L 21.1875 16.96875 L 22.59375 16.96875 Z M 22.59375 15.5625 L 21.1875 15.5625 L 21.1875 12.75 L 22.59375 12.75 Z M 22.59375 11.34375 L 21.1875 11.34375 L 21.1875 8.4375 L 22.59375 8.4375 Z M 22.59375 7.03125 L 21.1875 7.03125 L 21.1875 4.21875 L 21.890625 4.21875 C 22.277344 4.21875 22.59375 4.535156 22.59375 4.921875 Z M 22.59375 7.03125 "/>
  <path fill="#CDCDCD" stroke="none" stroke-width="0" stroke-linecap="round" stroke-linejoin="round" d="M 14.859375 9.84375 C 16.023438 9.84375 16.96875 8.898438 16.96875 7.734375 L 16.96875 6.328125 C 16.96875 5.164062 16.023438 4.21875 14.859375 4.21875 C 12.144531 4.21875 9.9375 6.425781 9.9375 9.140625 L 9.9375 14.859375 C 9.9375 17.574219 12.144531 19.78125 14.859375 19.78125 C 16.023438 19.78125 16.96875 18.835938 16.96875 17.671875 L 16.96875 16.265625 C 16.96875 15.101562 16.023438 14.15625 14.859375 14.15625 C 14.472656 14.15625 14.15625 13.839844 14.15625 13.453125 L 14.15625 10.546875 C 14.15625 10.160156 14.472656 9.84375 14.859375 9.84375 Z M 14.859375 15.5625 C 15.246094 15.5625 15.5625 15.878906 15.5625 16.265625 L 15.5625 17.671875 C 15.5625 18.058594 15.246094 18.375 14.859375 18.375 C 12.921875 18.375 11.34375 16.796875 11.34375 14.859375 L 11.34375 9.140625 C 11.34375 7.203125 12.921875 5.625 14.859375 5.625 C 15.246094 5.625 15.5625 5.941406 15.5625 6.328125 L 15.5625 7.734375 C 15.5625 8.121094 15.246094 8.4375 14.859375 8.4375 C 13.695312 8.4375 12.75 9.382812 12.75 10.546875 L 12.75 13.453125 C 12.75 14.617188 13.695312 15.5625 14.859375 15.5625 Z M 14.859375 15.5625 "/>
</g>
</svg>
